<svg xmlns="http://www.w3.org/2000/svg" version="1.1" xmlns:xlink="http://www.w3.org/1999/xlink" xmlns:svgjs="http://svgjs.com/svgjs" width="1440" height="560" preserveAspectRatio="none" viewBox="0 0 1440 560"><g mask="url(&quot;#SvgjsMask1003&quot;)" fill="none"><rect width="1440" height="560" x="0" y="0" fill="rgba(255, 255, 255, 1)"></rect><path d="M744.65 671.05C842.03 638.58 804.61 355.16 1005.5 353.95 1206.4 352.74 1392.53 487.28 1527.21 488.35" stroke="rgba(194, 113, 51, 0.89)" stroke-width="2"></path><path d="M874.87 564.27C948.91 560.58 916.76 442.61 1139.71 430.94 1362.66 419.27 1520.47 164.53 1669.39 156.54" stroke="rgba(194, 113, 51, 0.89)" stroke-width="2"></path><path d="M546.95 607.84C661.42 580.39 623.79 274.08 877.82 272.81 1131.85 271.54 1371.53 389.95 1539.56 390.41" stroke="rgba(194, 113, 51, 0.89)" stroke-width="2"></path><path d="M757.91 575.32C887.77 563.68 975.86 294.79 1197.4 294.56 1418.95 294.33 1519.31 459.73 1636.9 462.56" stroke="rgba(194, 113, 51, 0.89)" stroke-width="2"></path><path d="M396.58 591.26C538.31 529.11 477.63 84.74 749.99 83.04 1022.35 81.34 1268.78 336.67 1456.81 340.64" stroke="rgba(194, 113, 51, 0.89)" stroke-width="2"></path></g><defs><mask id="SvgjsMask1003"><rect width="1440" height="560" fill="#ffffff"></rect></mask></defs></svg>