<svg xmlns="http://www.w3.org/2000/svg" version="1.1" xmlns:xlink="http://www.w3.org/1999/xlink" xmlns:svgjs="http://svgjs.com/svgjs" width="1440" height="560" preserveAspectRatio="none" viewBox="0 0 1440 560"><g mask="url(&quot;#SvgjsMask1005&quot;)" fill="none"><rect width="1440" height="560" x="0" y="0" fill="rgba(255, 255, 255, 1)"></rect><path d="M -811.9439181282052,178 C -715.94,201 -523.94,286.4 -331.94391812820515,293 C -139.94,299.6 -43.94,205.2 148.05608187179485,211 C 340.06,216.8 436.06,341.6 628.0560818717948,322 C 820.06,302.4 945.67,82.4 1108.056081871795,113 C 1270.44,143.6 1373.61,402.6 1440,475" stroke="rgba(194, 51, 51, 0.81)" stroke-width="2"></path><path d="M -428.02388916191273,338 C -332.02,322.4 -140.02,238 51.97611083808727,260 C 243.98,282 339.98,488 531.9761108380873,448 C 723.98,408 819.98,84.8 1011.9761108380873,60 C 1203.98,35.2 1406.37,324.8 1491.9761108380874,324 C 1577.58,323.2 1450.4,109.6 1440,56" stroke="rgba(194, 51, 51, 0.81)" stroke-width="2"></path><path d="M -468.82252527603305,490 C -372.82,404 -180.82,59.4 11.177474723966938,60 C 203.18,60.6 299.18,449.4 491.17747472396695,493 C 683.18,536.6 779.18,277.8 971.177474723967,278 C 1163.18,278.2 1357.41,534.6 1451.177474723967,494 C 1544.94,453.4 1442.24,158.8 1440,75" stroke="rgba(194, 51, 51, 0.81)" stroke-width="2"></path><path d="M -886.030306211406,341 C -790.03,317.8 -598.03,233.6 -406.03030621140607,225 C -214.03,216.4 -118.03,289.6 73.96969378859393,298 C 265.97,306.4 361.97,234 553.969693788594,267 C 745.97,300 856.76,477.6 1033.969693788594,463 C 1211.18,448.4 1358.79,247.8 1440,194" stroke="rgba(194, 51, 51, 0.81)" stroke-width="2"></path></g><defs><mask id="SvgjsMask1005"><rect width="1440" height="560" fill="#ffffff"></rect></mask></defs></svg>