<svg xmlns="http://www.w3.org/2000/svg" viewBox="0 0 512 512"><path fill="#fc0" d="M0 0h512v512H0z"/><path d="M40.38 189.08c0-8.63-2.02-12.71-8.63-12.71H20.02c-1.5 0-2.02-.52-2.02-2.3v-5.86c0-1.5.52-2.02 2.53-2.02 2.53 0 14.78.75 39.17.75 21.39 0 33.59-.75 36.64-.75 1.55 0 2.02.52 2.02 1.78v6.38c0 1.55-.52 2.02-2.02 2.02h-10.7c-7.65 0-12.2 4.6-12.48 9.95-.23 3.05-.75 18.34-.75 33.07v31.57c0 12.71.23 30.77.75 38.94.75 11.73 2.81 23.41 8.91 31.57 8.63 11.73 22.38 15.76 34.62 15.76s25.94-4.6 34.11-12.2c9.66-9.66 14.78-24.44 14.78-43.02v-45.79c0-20.36-2.02-42.74-2.81-48.6-.75-6.61-4.83-11.21-10.41-11.21h-9.15c-1.55 0-2.02-.75-2.02-1.78v-6.38c0-1.5.52-2.02 2.02-2.02 2.53 0 14.26.75 31.06.75 15.76 0 23.93-.75 25.94-.75 2.3 0 2.53.75 2.53 2.02v5.86c0 1.55-.23 2.3-1.55 2.3h-9.15c-9.15 0-10.18 7.13-10.7 9.95-.52 3.05-.52 38.7-.52 41.99 0 3.57-.52 47.85-1.5 58.03-1.55 20.88-7.65 36.64-21.39 48.88-10.7 9.66-26.97 15.76-46.3 15.76-12.2 0-26.97-2.02-36.64-6.1-14.78-6.1-24.96-17.83-30.02-34.11-3.57-11.21-4.6-28.01-4.6-61.31v-60.42zm172.41 101.29c1.03 0 1.55.52 1.55 2.02.52 8.16 2.53 17.83 9.66 28.99 7.65 12.2 20.88 18.34 33.59 18.34 13.75 0 33.07-8.63 33.07-29.79 0-23.41-10.7-31.06-37.67-41.24-8.16-3.05-24.96-10.18-37.15-21.39-8.63-8.16-12.71-20.88-12.71-36.4 0-14.26 5.58-25.94 17.83-35.61 10.18-8.63 21.39-12.2 36.12-12.2 16.79 0 26.97 4.08 32.04 6.1 2.53 1.03 4.08.52 5.35-.75l3.33-3.33c1.03-1.03 2.02-1.55 3.57-1.55s2.02 1.55 2.02 4.08c0 4.08 4.08 39.69 4.08 42.27 0 1.03-.52 1.55-1.5 1.78l-4.08 1.27c-1.03.23-2.02 0-2.53-1.55-2.53-7.13-6.61-17.31-15.76-26.97-6.61-7.13-14.73-10.7-26.46-10.7-20.36 0-28.52 16.28-28.52 25.71 0 8.63 1.03 16.28 7.13 22.89 6.61 6.61 20.88 12.71 31.06 15.76 14.78 4.6 26.97 9.66 36.64 19.84 8.16 8.68 12.71 19.33 12.71 36.4 0 31.06-20.36 56.48-53.95 56.48-20.88 0-33.07-4.6-43.25-12.2-3.05-2.02-4.6-3.05-6.1-3.05s-2.53 2.02-4.08 4.6c-1.5 2.53-2.53 3.05-4.6 3.05s-3.05-1.55-3.05-4.08c.52-3.05 4.08-44.29 4.6-47.33.23-1.55.52-2.02 1.55-2.02l5.58.52-.05.05zm280.79 15.24c.75.75 1.03 1.55.52 2.53-15.29 21.86-39.69 42.74-75.81 42.74-32.56 0-50.9-9.66-66.66-23.93-18.81-16.79-27.49-46.3-27.49-68.73 0-24.96 8.16-48.88 25.94-68.21 13.75-14.78 35.61-26.97 66.15-26.97 23.41 0 42.22 7.13 51.42 12.2 3.57 2.02 4.6 2.02 5.11 0l2.02-6.61c.52-1.55 1.03-1.55 4.08-1.55s3.57.52 3.57 4.08c0 4.6 5.11 45.32 6.1 52.92.23 1.55 0 2.3-1.03 2.53l-4.83 1.55c-1.27.52-2.02-.52-2.81-2.53-3.05-9.15-9.15-21.91-19.84-33.07-11.21-10.7-24.44-18.81-44.29-18.81-40.72 0-57.52 36.64-57.52 73.28 0 15.76 4.6 45.79 23.41 66.15 16.79 17.83 31.57 19.84 43.77 19.84 28.01 0 50.15-13.98 60.8-29.51 1.27-1.78 2.3-2.53 3.05-1.78l4.32 3.8.05.09z" fill="#900"/></svg>