<svg xmlns="http://www.w3.org/2000/svg" version="1.1" xmlns:xlink="http://www.w3.org/1999/xlink" xmlns:svgjs="http://svgjs.dev/svgjs" width="1000" height="338" viewBox="0 0 1000 338"><g transform="matrix(1,0,0,1,-0.6060606060606233,-0.2933653855545799)"><svg viewBox="0 0 396 134" data-background-color="#ffffff" preserveAspectRatio="xMidYMid meet" height="338" width="1000" xmlns="http://www.w3.org/2000/svg" xmlns:xlink="http://www.w3.org/1999/xlink"><g id="tight-bounds" transform="matrix(1,0,0,1,0.2400000000000091,0.11630462030862532)"><svg viewBox="0 0 395.52 133.76739075938275" height="133.76739075938275" width="395.52"><g><svg viewBox="0 0 668.7554295289923 226.17735857671815" height="133.76739075938275" width="395.52"><g transform="matrix(1,0,0,1,273.2354295289923,63.25507596540995)"><svg viewBox="0 0 395.52 99.66720664589825" height="99.66720664589825" width="395.52"><g><svg viewBox="0 0 395.52 99.66720664589825" height="99.66720664589825" width="395.52"><g><svg viewBox="0 0 395.52 99.66720664589825" height="99.66720664589825" width="395.52"><g transform="matrix(1,0,0,1,0,0)"><svg width="395.52" viewBox="2.95 -35.55 144.44 36.4" height="99.66720664589825" data-palette-color="#332885"><path d="M11.15 0L2.95 0 2.95-34.65 11.15-34.65 11.15 0ZM11.4-18.5L20.85-34.65 29.45-34.65 19.65-19.1 30.4 0 20.95 0 11.4-18.5ZM58.85-17.35Q58.85-8.9 55.27-4.03 51.7 0.85 45 0.85L45 0.85Q38.25 0.85 34.7-3.98 31.15-8.8 31.15-17.35L31.15-17.35Q31.15-25.8 34.72-30.68 38.3-35.55 45-35.55L45-35.55Q51.75-35.55 55.3-30.73 58.85-25.9 58.85-17.35L58.85-17.35ZM50.45-17.35Q50.45-23.75 49.17-26.65 47.9-29.55 45-29.55L45-29.55Q42.1-29.55 40.82-26.65 39.55-23.75 39.55-17.35L39.55-17.35Q39.55-10.95 40.82-8.05 42.1-5.15 45-5.15L45-5.15Q47.95-5.15 49.2-8.05 50.45-10.95 50.45-17.35L50.45-17.35ZM88.84-17.35Q88.84-8.9 85.27-4.03 81.7 0.85 75 0.85L75 0.85Q68.25 0.85 64.7-3.98 61.15-8.8 61.15-17.35L61.15-17.35Q61.15-25.8 64.72-30.68 68.3-35.55 75-35.55L75-35.55Q81.75-35.55 85.3-30.73 88.84-25.9 88.84-17.35L88.84-17.35ZM80.45-17.35Q80.45-23.75 79.17-26.65 77.9-29.55 75-29.55L75-29.55Q72.09-29.55 70.82-26.65 69.55-23.75 69.55-17.35L69.55-17.35Q69.55-10.95 70.82-8.05 72.09-5.15 75-5.15L75-5.15Q77.95-5.15 79.2-8.05 80.45-10.95 80.45-17.35L80.45-17.35ZM107.89-35.55Q111.49-35.55 114.09-34.6 116.69-33.65 118.99-31.75L118.99-31.75 114.99-26.9Q111.84-29.45 108.09-29.45L108.09-29.45Q104.54-29.45 102.37-26.45 100.19-23.45 100.19-17.4L100.19-17.4Q100.19-11.35 102.34-8.43 104.49-5.5 108.24-5.5L108.24-5.5Q110.54-5.5 112.19-6.3 113.84-7.1 115.74-8.6L115.74-8.6 119.44-3.85Q114.84 0.85 107.79 0.85L107.79 0.85Q103.04 0.85 99.42-1.25 95.79-3.35 93.74-7.48 91.69-11.6 91.69-17.4L91.69-17.4Q91.69-23.05 93.79-27.15 95.89-31.25 99.59-33.4 103.29-35.55 107.89-35.55L107.89-35.55ZM139.19 0L139.19-14.6 130.79-14.6 130.79 0 122.59 0 122.59-34.65 130.79-34.65 130.79-21.35 139.19-21.35 139.19-34.65 147.39-34.65 147.39 0 139.19 0Z" opacity="1" transform="matrix(1,0,0,1,0,0)" fill="#332885" class="undefined-text-0" data-fill-palette-color="primary" id="text-0"></path></svg></g></svg></g></svg></g></svg></g><g><svg viewBox="0 0 226.17735857671815 226.17735857671815" height="226.17735857671815" width="226.17735857671815"><g><svg></svg></g><g id="icon-0"><svg viewBox="0 0 226.17735857671815 226.17735857671815" height="226.17735857671815" width="226.17735857671815"><g><path d="M0 113.089c0-62.457 50.632-113.089 113.089-113.089 62.457 0 113.089 50.632 113.088 113.089 0 62.457-50.632 113.089-113.088 113.088-62.457 0-113.089-50.632-113.089-113.088zM113.089 217.189c57.493 0 104.101-46.607 104.1-104.1 0-57.493-46.607-104.101-104.1-104.101-57.493 0-104.101 46.607-104.101 104.101 0 57.493 46.607 104.101 104.101 104.1z" data-fill-palette-color="accent" fill="#332885" stroke="transparent"></path><ellipse rx="111.95779249547549" ry="111.95779249547549" cx="113.08867928835907" cy="113.08867928835907" fill="#332885" stroke="transparent" stroke-width="0" fill-opacity="1" data-fill-palette-color="accent"></ellipse></g><g transform="matrix(1,0,0,1,48.703672094866405,49.610503182098704)"><svg viewBox="0 0 128.77001438698534 126.95635221252074" height="126.95635221252074" width="128.77001438698534"><g><svg xmlns="http://www.w3.org/2000/svg" xmlns:xlink="http://www.w3.org/1999/xlink" version="1.1" x="0" y="0" viewBox="0 0 63.900000000000006 63" enable-background="new 0 0 64 64" xml:space="preserve" height="126.95635221252074" width="128.77001438698534" class="icon-gn-0" data-fill-palette-color="quaternary" id="gn-0"><path fill="#ffffff" d="M9.5 17.3c0.1 0.1 0.3 0.1 0.5 0.1 0.1 0 0.3 0 0.4-0.1 0.2-0.1 5.7-2.6 6.1-9.1 0-0.4-0.2-0.8-0.5-0.9L15 6.8c-0.4-0.2-0.8-0.6-1.1-0.9l-0.8-1.2C12.9 4.3 12.6 4 12.3 4H7.7C7.4 4 7.1 4.3 6.9 4.6L6.2 5.7C5.9 6.1 5.4 6.5 4.9 6.8L4.1 7.2c-0.4 0.2-0.6 0.6-0.5 1C3.5 8.5 4.2 14.6 9.5 17.3zM5.8 8.6c0.8-0.4 1.5-1.2 2-1.8L8.2 6h3.6l0.5 0.9c0.5 0.6 1.1 1.2 1.8 1.6l0.4 0.2c-0.5 3.9-3.3 5.9-4.4 6.6C7 13.4 5.9 10.1 5.6 8.7L5.8 8.6z" data-fill-palette-color="quaternary"></path><path fill="#ffffff" d="M9.5 14C9.6 14 9.6 14 9.5 14c0.3 0 0.6-0.3 0.8-0.5l3.2-3.8c0.4-0.4 0.3-1-0.1-1.4C13 8 12.4 8 12 8.4l-2.5 2.9-0.6-0.6c-0.4-0.4-1-0.4-1.4 0-0.4 0.4-0.4 1.1 0 1.4l1.4 1.4C9 13.8 9.3 14 9.5 14z" data-fill-palette-color="quaternary"></path><path fill="#ffffff" d="M0 9.4c0 10 9 16.1 9.4 16.4C9.6 25.9 9.8 26 10 26c0.2 0 0.4-0.1 0.6-0.2 0.4-0.3 9.4-6.4 9.4-16.4C20 4.1 15.7 0 10 0S0 4.1 0 9.4zM10 2c4.5 0 8 3.2 8 7.4 0 7.6-6.1 12.9-8 14.3C8.1 22.3 2 17 2 9.4 2 5.2 5.5 2 10 2z" data-fill-palette-color="quaternary"></path><path fill="#ffffff" d="M59.6 43.1c0-3.1-2.6-5.7-5.6-5.7s-5.6 2.8-5.6 5.9c0 2.2 0.8 3.1 2.1 3.5l-0.4 2c-0.1 0.3 0 0.6 0.2 0.8S50.7 50 51 50h6c0.3 0 0.6-0.1 0.8-0.4s0.3-0.5 0.2-0.8l-0.5-2.3C59 46.2 59.6 45.4 59.6 43.1zM55.4 44.6c-0.6 0-1 0.5-1 1 0 0.6 0.5 1 1 1 0 0 0.1 0 0.1 0l0.3 1.4h-3.5l0.2-1c0.1 0 0.1 0 0.2 0 0 0 0 0 0 0 0.6 0 1-0.6 1-1.2 0-0.6-0.4-1.2-1-1.2-2.3 0-2.3-0.1-2.3-1.5 0-1.9 1.8-3.8 3.6-3.8s3.6 1.8 3.6 3.8C57.6 44.6 57.6 44.6 55.4 44.6z" data-fill-palette-color="quaternary"></path><circle fill="#ffffff" cx="52.2" cy="42.4" r="0.90" data-fill-palette-color="quaternary"></circle><circle fill="#ffffff" cx="55.8" cy="42.4" r="0.90" data-fill-palette-color="quaternary"></circle><path fill="#ffffff" d="M54 33c-5.5 0-9.9 4.4-9.9 9.8 0 9.8 8.9 16.7 9.3 17 0.2 0.1 0.4 0.2 0.6 0.2 0.2 0 0.4-0.1 0.6-0.2 0.4-0.3 9.3-7.1 9.3-17C63.9 37.4 59.5 33 54 33zM54 57.7c-1.9-1.7-7.9-7.5-7.9-14.9 0-4.4 3.5-7.8 7.9-7.8s7.9 3.4 7.9 7.8C61.9 50.3 55.9 56 54 57.7z" data-fill-palette-color="quaternary"></path><path fill="#ffffff" d="M8 27c-0.6 0-1 0.4-1 1s0.4 1 1 1h4c0.6 0 1-0.4 1-1s-0.4-1-1-1H8z" data-fill-palette-color="quaternary"></path><path fill="#ffffff" d="M56 61h-4c-0.6 0-1 0.4-1 1s0.4 1 1 1h4c0.6 0 1-0.4 1-1S56.6 61 56 61z" data-fill-palette-color="quaternary"></path><path fill="#ffffff" d="M44 26v-4c0-3.9-3.1-7-7-7H25l1.8-2.4c0.3-0.4 0.2-1.1-0.2-1.4-0.4-0.3-1.1-0.2-1.4 0.2l-3 4c-0.3 0.4-0.3 0.8 0 1.2l3 4c0.2 0.3 0.5 0.4 0.8 0.4 0.2 0 0.4-0.1 0.6-0.2 0.4-0.3 0.5-1 0.2-1.4L25 17h12c2.8 0 5 2.2 5 5v4c0 2.8-2.2 5-5 5H13c-3.9 0-7 3.1-7 7v4c0 3.9 3.1 7 7 7h27c0.6 0 1-0.4 1-1s-0.4-1-1-1H13c-2.8 0-5-2.2-5-5v-4c0-2.8 2.2-5 5-5h24C40.9 33 44 29.9 44 26z" data-fill-palette-color="quaternary"></path><path fill="#ffffff" d="M26 51c-0.6 0-1 0.4-1 1s0.4 1 1 1h2c0.6 0 1-0.4 1-1s-0.4-1-1-1H26z" data-fill-palette-color="quaternary"></path><path fill="#ffffff" d="M32 51c-0.6 0-1 0.4-1 1s0.4 1 1 1h2c0.6 0 1-0.4 1-1s-0.4-1-1-1H32z" data-fill-palette-color="quaternary"></path><path fill="#ffffff" d="M40 51h-2c-0.6 0-1 0.4-1 1s0.4 1 1 1h2c0.6 0 1-0.4 1-1S40.6 51 40 51z" data-fill-palette-color="quaternary"></path><path fill="#ffffff" d="M12 35c-0.6 0-1 0.4-1 1s0.4 1 1 1h2c0.6 0 1-0.4 1-1s-0.4-1-1-1H12z" data-fill-palette-color="quaternary"></path><path fill="#ffffff" d="M18 35c-0.6 0-1 0.4-1 1s0.4 1 1 1h2c0.6 0 1-0.4 1-1s-0.4-1-1-1H18z" data-fill-palette-color="quaternary"></path><path fill="#ffffff" d="M24 35c-0.6 0-1 0.4-1 1s0.4 1 1 1h2c0.6 0 1-0.4 1-1s-0.4-1-1-1H24z" data-fill-palette-color="quaternary"></path></svg></g></svg></g></svg></g></svg></g></svg></g><defs></defs></svg><rect width="395.52" height="133.76739075938275" fill="none" stroke="none" visibility="hidden"></rect></g></svg></g></svg>